<svg xmlns="http://www.w3.org/2000/svg" viewBox="0 0 20 20">
  <path fill="#212121" d="M10 2a1 1 0 0 1 1 1v1a1 1 0 1 1-2 0V3a1 1 0 0 1 1-1zm0 12a1 1 0 0 1 1 1v1a1 1 0 1 1-2 0v-1a1 1 0 0 1 1-1zm-8-4a1 1 0 0 1 1-1h1a1 1 0 0 1 0 2H3a1 1 0 0 1-1-1zm12 0a1 1 0 0 1 1-1h1a1 1 0 0 1 0 2h-1a1 1 0 0 1-1-1zM4.22 4.22a1 1 0 0 1 1.415 0l.707.707a1 1 0 1 1-1.415 1.414L4.22 5.635a1 1 0 0 1 0-1.415zm10.607 10.607a1 1 0 0 1 1.414 0l.707.707a1 1 0 1 1-1.414 1.414l-.707-.707a1 1 0 0 1 0-1.414zM4.22 15.78a1 1 0 0 1 0-1.414l.707-.707a1 1 0 1 1 1.415 1.414l-.707.707a1 1 0 0 1-1.415 0zm10.607-10.607a1 1 0 0 1 0-1.414l.707-.707a1 1 0 1 1 1.414 1.414l-.707.707a1 1 0 0 1-1.414 0zM10 7a3 3 0 1 0 0 6 3 3 0 0 0 0-6z"/>
</svg>
